<svg xmlns="http://www.w3.org/2000/svg" viewBox="0 0 391 120" role="img" aria-labelledby="t"><title id="t">R&amp;A Concrete LLC</title>
<path fill="#000" fill-rule="evenodd" d="M4 0H58V120H4L0 116V4Z M62 0H116L120 4V116L116 120H62Z M11 28H37L47 38V55L41.5 61.5L49 92H36.5L30 66H23V92H11Z M23 39H33L35 41V51L33 53H23Z M69 92L85 28H97L113 92H100L96.75 79H85.25L82 92Z M87 72H95L91 56Z"/><g transform="translate(150.00 0.00)"><path fill="#000" d="M7.66 60V-0.07H51.83Q58.32 -0.07 62.56 2.47Q66.79 5.02 68.9 9.31Q71 13.61 71 18.9Q71 24.47 68.3 29.1Q65.6 33.73 60.16 36.31L72.64 60H56.34L45.76 38.86H22.18V60ZM22.18 27.41H48.07Q51.87 27.41 54.01 25.14Q56.14 22.87 56.14 19.21Q56.14 16.71 55.2 14.99Q54.26 13.27 52.46 12.37Q50.66 11.47 48.07 11.47H22.18Z M166.45 60 194.38 -0.07H211.12L239.07 60H223.3L218.32 48.89H186.35L181.38 60ZM191.33 37.56H213.27L207.19 23.54Q206.8 22.64 206.12 21Q205.44 19.35 204.75 17.57Q204.06 15.79 203.49 14.26Q202.92 12.73 202.66 12.16H202.03Q201.39 13.85 200.52 16.04Q199.65 18.23 198.83 20.28Q198.02 22.32 197.47 23.57Z"/><path fill="#000" d="M117.46 61.05Q107.2 61.05 100.27 58.95Q93.35 56.85 89.81 52.9Q86.26 48.94 86.26 43.46Q86.26 37.83 89.58 34.07Q92.9 30.32 98.19 28.91V28.56Q93.94 27.1 91.01 23.81Q88.08 20.51 88.08 15.74Q88.08 10.56 91.61 6.77Q95.14 2.97 101.85 0.93Q108.55 -1.12 118.04 -1.12Q127.31 -1.12 134 0.94Q140.68 2.99 144.32 6.68Q147.95 10.36 147.95 15.22V17.14H134.8L134.82 16.07Q134.79 13.76 132.79 12.16Q130.79 10.55 127.2 9.72Q123.61 8.89 118.81 8.89Q114.98 8.89 111.84 9.43Q108.69 9.97 106.44 11.01Q104.19 12.06 102.99 13.6Q101.78 15.14 101.78 17.24Q101.78 19.9 103.29 21.54Q104.8 23.17 107.29 23.92Q109.78 24.66 112.66 24.66H122.81V34.02H111.62Q108.56 34.02 105.86 34.77Q103.16 35.51 101.56 37.25Q99.95 38.99 99.95 42.08Q99.95 45.1 101.96 47.08Q103.98 49.06 107.98 50.05Q111.98 51.04 117.89 51.04Q123.97 51.04 127.71 49.9Q131.46 48.75 133.13 46.67Q134.8 44.58 134.8 41.79V24.66H158.61V34.02H147.94V41.49Q147.94 47.54 144.68 51.96Q141.42 56.38 134.68 58.72Q127.93 61.05 117.46 61.05Z"/><rect x="0" y="78" width="240.55" height="3" fill="#000" opacity=".35"/><path fill="#000" transform="translate(0 120)" d="M11.34 0.3Q8.15 0.3 5.96 -0.69Q3.78 -1.67 2.67 -3.63Q1.56 -5.59 1.56 -8.52Q1.56 -12.8 4.09 -15.06Q6.62 -17.32 11.32 -17.32Q13.98 -17.32 16.02 -16.54Q18.07 -15.76 19.23 -14.26Q20.39 -12.76 20.39 -10.57H17.02Q17.02 -11.87 16.29 -12.73Q15.57 -13.59 14.28 -14.02Q12.99 -14.46 11.28 -14.46Q9.34 -14.46 7.95 -13.81Q6.55 -13.16 5.8 -11.9Q5.05 -10.65 5.05 -8.82V-8.22Q5.05 -6.36 5.8 -5.1Q6.55 -3.84 7.96 -3.2Q9.36 -2.56 11.3 -2.56Q13.09 -2.56 14.39 -2.99Q15.69 -3.41 16.4 -4.27Q17.12 -5.14 17.12 -6.41H20.4Q20.4 -4.25 19.25 -2.75Q18.1 -1.25 16.06 -0.48Q14.02 0.3 11.34 0.3ZM34.47 0.3Q31.31 0.3 29.01 -0.71Q26.71 -1.71 25.47 -3.68Q24.23 -5.65 24.23 -8.51Q24.23 -11.4 25.47 -13.35Q26.71 -15.3 29.01 -16.31Q31.31 -17.32 34.47 -17.32Q37.67 -17.32 39.96 -16.31Q42.26 -15.3 43.49 -13.35Q44.73 -11.4 44.73 -8.51Q44.73 -5.65 43.49 -3.68Q42.26 -1.71 39.96 -0.71Q37.67 0.3 34.47 0.3ZM34.48 -2.56Q35.98 -2.56 37.22 -2.92Q38.45 -3.27 39.35 -3.98Q40.25 -4.68 40.75 -5.75Q41.24 -6.82 41.24 -8.24V-8.8Q41.24 -10.22 40.75 -11.28Q40.25 -12.35 39.35 -13.06Q38.45 -13.76 37.22 -14.11Q35.98 -14.46 34.48 -14.46Q32.98 -14.46 31.75 -14.11Q30.51 -13.76 29.61 -13.06Q28.71 -12.35 28.22 -11.28Q27.74 -10.22 27.74 -8.8V-8.24Q27.74 -6.82 28.22 -5.75Q28.71 -4.68 29.61 -3.98Q30.51 -3.27 31.75 -2.92Q32.98 -2.56 34.48 -2.56ZM49.36 0V-17.02H52.59L61.59 -7.41Q61.85 -7.18 62.21 -6.77Q62.57 -6.37 62.95 -5.95Q63.33 -5.54 63.59 -5.22H63.76Q63.74 -5.7 63.72 -6.35Q63.69 -6.99 63.69 -7.45V-17.02H66.97V0H63.82L54.78 -9.71Q54.26 -10.25 53.67 -10.91Q53.09 -11.58 52.74 -11.96H52.58Q52.6 -11.62 52.62 -10.95Q52.63 -10.27 52.63 -9.46V0ZM81.38 0.3Q78.19 0.3 76 -0.69Q73.82 -1.67 72.71 -3.63Q71.6 -5.59 71.6 -8.52Q71.6 -12.8 74.13 -15.06Q76.66 -17.32 81.36 -17.32Q84.02 -17.32 86.07 -16.54Q88.11 -15.76 89.27 -14.26Q90.43 -12.76 90.43 -10.57H87.07Q87.07 -11.87 86.34 -12.73Q85.61 -13.59 84.32 -14.02Q83.04 -14.46 81.32 -14.46Q79.39 -14.46 77.99 -13.81Q76.59 -13.16 75.84 -11.9Q75.09 -10.65 75.09 -8.82V-8.22Q75.09 -6.36 75.84 -5.1Q76.6 -3.84 78 -3.2Q79.4 -2.56 81.35 -2.56Q83.13 -2.56 84.43 -2.99Q85.73 -3.41 86.45 -4.27Q87.16 -5.14 87.16 -6.41H90.45Q90.45 -4.25 89.3 -2.75Q88.15 -1.25 86.11 -0.48Q84.07 0.3 81.38 0.3ZM95.02 0V-17.02H107.13Q108.94 -17.02 110.11 -16.32Q111.28 -15.62 111.86 -14.43Q112.44 -13.24 112.44 -11.75Q112.44 -10.18 111.66 -8.88Q110.88 -7.57 109.31 -6.88L112.91 0H109.12L105.94 -6.25H98.43V0ZM98.43 -9.09H106.38Q107.61 -9.09 108.29 -9.81Q108.96 -10.53 108.96 -11.7Q108.96 -12.48 108.67 -13.03Q108.37 -13.58 107.8 -13.87Q107.22 -14.16 106.38 -14.16H98.43ZM117.13 0V-17.02H133.16V-14.16H120.53V-10.11H131.8V-7.24H120.53V-2.86H133.34V0ZM143.37 0V-14.03H136.36V-17.02H153.78V-14.03H146.77V0ZM157.49 0V-17.02H173.52V-14.16H160.89V-10.11H172.16V-7.24H160.89V-2.86H173.7V0ZM186.32 0V-17.02H189.72V-2.99H199.87V0ZM203.64 0V-17.02H207.04V-2.99H217.18V0ZM229.98 0.3Q226.79 0.3 224.61 -0.69Q222.42 -1.67 221.31 -3.63Q220.21 -5.59 220.21 -8.52Q220.21 -12.8 222.73 -15.06Q225.26 -17.32 229.96 -17.32Q232.62 -17.32 234.67 -16.54Q236.72 -15.76 237.88 -14.26Q239.03 -12.76 239.03 -10.57H235.67Q235.67 -11.87 234.94 -12.73Q234.21 -13.59 232.93 -14.02Q231.64 -14.46 229.92 -14.46Q227.99 -14.46 226.59 -13.81Q225.2 -13.16 224.45 -11.9Q223.7 -10.65 223.7 -8.82V-8.22Q223.7 -6.36 224.45 -5.1Q225.2 -3.84 226.6 -3.2Q228.01 -2.56 229.95 -2.56Q231.74 -2.56 233.04 -2.99Q234.34 -3.41 235.05 -4.27Q235.76 -5.14 235.76 -6.41H239.05Q239.05 -4.25 237.9 -2.75Q236.75 -1.25 234.71 -0.48Q232.67 0.3 229.98 0.3Z"/></g>
</svg>
